<?xml version="1.0" standalone="no"?>
<!DOCTYPE svg PUBLIC "-//W3C//DTD SVG 20010904//EN"
 "http://www.w3.org/TR/2001/REC-SVG-20010904/DTD/svg10.dtd">
<svg version="1.0" xmlns="http://www.w3.org/2000/svg"
 width="626.000000pt" height="626.000000pt" viewBox="0 0 626.000000 626.000000"
 preserveAspectRatio="xMidYMid meet">
<metadata>
Created by potrace 1.14, written by Peter Selinger 2001-2017
</metadata>
<g transform="translate(0.000000,626.000000) scale(0.100000,-0.100000)"
fill="#000000" stroke="none">
<path d="M5068 5531 c-96 -201 -380 -357 -739 -405 -147 -20 -175 -26 -186
-42 -19 -26 -17 -30 36 -72 48 -38 49 -39 132 -36 46 1 93 4 104 7 11 3 54 12
95 21 117 25 223 64 241 89 3 5 10 8 15 8 18 -1 138 84 190 135 67 65 127 185
144 284 6 38 10 74 8 79 -1 5 -19 -26 -40 -68z"/>
<path d="M1216 5523 c15 -89 47 -184 77 -228 29 -44 119 -135 133 -135 6 0 18
-7 25 -16 7 -9 22 -20 34 -25 20 -9 38 -19 86 -51 14 -10 29 -15 33 -11 3 3 6
0 6 -7 0 -7 3 -11 6 -7 4 3 20 -1 36 -9 17 -9 42 -18 57 -20 14 -3 43 -9 64
-15 53 -14 177 -31 222 -31 66 1 165 67 165 110 0 17 -120 50 -180 51 -21 0
-77 10 -125 23 -22 5 -51 12 -65 14 -14 3 -47 12 -75 21 -27 10 -53 16 -57 15
-5 -1 -8 3 -8 10 0 6 -3 9 -6 5 -4 -3 -21 1 -38 10 -17 10 -34 17 -37 18 -3 0
-37 20 -75 44 -89 58 -166 136 -229 233 -27 42 -53 77 -56 78 -3 0 0 -35 7
-77z"/>
<path d="M1280 5573 c0 -50 55 -127 132 -190 77 -61 88 -69 153 -104 34 -18
186 -78 200 -79 3 0 6 0 8 -1 1 0 9 -2 17 -4 8 -1 42 -8 75 -16 33 -7 69 -13
80 -14 11 -1 63 -10 115 -20 152 -29 175 -67 91 -152 -53 -54 -51 -53 -148
-54 -76 -1 -114 4 -205 26 -35 9 -72 18 -82 20 -40 9 -122 38 -151 53 -49 26
-163 102 -176 118 -6 8 -17 14 -24 14 -6 0 -20 9 -30 20 -28 31 -36 13 -16
-39 34 -91 111 -183 206 -246 60 -39 161 -86 169 -77 3 3 6 0 6 -7 0 -7 4 -10
8 -7 5 3 37 -1 71 -9 34 -8 107 -17 162 -19 l100 -4 10 27 c6 14 18 34 27 45
18 20 117 73 110 59 -33 -70 -43 -82 -72 -85 -23 -2 -32 -9 -34 -24 -3 -19 1
-22 33 -19 35 2 36 1 70 -72 61 -133 176 -221 378 -288 85 -29 103 -33 162
-40 22 -2 63 -8 90 -14 28 -5 54 -6 58 -2 4 4 7 47 5 96 -3 79 -5 88 -23 91
-49 8 -174 44 -216 63 -63 28 -161 124 -200 196 -29 52 -34 73 -39 161 -6 91
-10 105 -38 147 -76 109 -186 159 -432 194 -39 5 -74 11 -80 13 -3 2 -9 2 -14
1 -4 -1 -22 3 -40 9 -17 5 -43 11 -58 12 -16 1 -28 5 -28 9 0 3 -6 6 -13 6
-36 0 -231 76 -261 102 -10 9 -20 14 -21 11 -5 -8 -100 83 -108 103 -10 26
-27 20 -27 -10z"/>
<path d="M5005 5563 c-20 -32 -43 -53 -98 -89 -38 -25 -146 -70 -159 -66 -5 1
-8 -3 -8 -10 0 -6 -3 -9 -6 -5 -3 3 -25 -1 -47 -10 -23 -8 -49 -16 -57 -18 -8
-1 -40 -10 -70 -19 -30 -8 -75 -18 -100 -21 -25 -4 -83 -13 -130 -20 -47 -8
-103 -17 -124 -19 -78 -9 -166 -49 -216 -96 -62 -59 -88 -113 -98 -202 -7 -66
-13 -80 -57 -143 -108 -152 -240 -247 -360 -261 -27 -3 -52 -7 -54 -10 -7 -6
-9 -114 -4 -165 l5 -46 77 14 c42 8 101 21 131 29 30 8 66 17 79 20 26 5 113
39 144 55 123 64 223 165 249 250 11 38 38 65 51 53 3 -3 11 -3 17 1 11 7 -19
64 -52 97 -19 19 -24 38 -10 38 5 0 27 -16 50 -36 34 -28 42 -42 42 -69 l0
-33 87 4 c75 2 130 8 208 20 26 4 60 12 60 14 0 1 12 3 26 5 15 2 41 11 58 19
17 9 34 17 38 17 8 1 88 39 132 64 43 24 123 118 152 180 27 55 37 105 23 105
-3 0 -27 -17 -53 -38 -25 -21 -70 -53 -98 -70 -54 -33 -183 -94 -183 -87 0 2
-16 -3 -36 -11 -20 -8 -48 -17 -63 -19 -14 -3 -64 -13 -111 -24 -179 -41 -326
-6 -354 85 -5 15 1 31 18 51 25 29 66 41 241 67 46 7 85 15 140 28 28 7 52 12
55 13 12 1 125 40 130 45 3 3 12 6 20 8 31 7 147 66 200 103 78 54 149 127
151 158 5 61 -12 81 -36 44z"/>
<path d="M3084 5475 c-68 -16 -124 -45 -147 -77 -24 -32 -35 -122 -17 -133 6
-4 59 -9 117 -11 110 -3 119 -6 108 -23 -6 -10 -86 -8 -189 5 -35 4 -38 3 -26
-11 8 -9 33 -30 56 -46 42 -29 45 -29 179 -29 l137 0 49 36 c27 20 49 39 49
43 0 4 -21 4 -47 0 -80 -13 -149 -11 -163 6 -7 8 -9 15 -4 16 5 0 56 1 112 1
120 1 132 8 132 73 0 32 -7 51 -26 75 -24 28 -113 82 -131 79 -5 -1 -10 0 -13
1 -18 8 -135 4 -176 -5z m185 -68 c55 -15 84 -51 79 -98 -4 -35 -11 -28 -22
23 -9 42 -65 70 -139 70 -73 0 -84 -2 -131 -27 -23 -13 -41 -32 -51 -57 -18
-45 -25 -48 -25 -11 0 18 13 38 41 65 22 21 43 37 47 34 4 -2 16 0 27 5 29 11
123 9 174 -4z m-14 -84 l27 -28 -36 -7 c-20 -4 -48 -15 -62 -24 -24 -16 -25
-16 -31 4 -6 23 -43 35 -83 27 -24 -4 -24 -3 8 25 28 26 40 30 91 30 50 0 62
-4 86 -27z"/>
<path d="M2417 5364 c-5 -5 -95 -14 -194 -21 -57 -3 -103 -9 -103 -13 0 -4 12
-6 28 -6 15 1 63 -10 107 -24 71 -22 166 -32 180 -18 9 9 107 -2 141 -17 22
-9 38 -26 48 -48 17 -41 22 -45 70 -51 28 -4 39 0 50 16 35 50 -43 140 -148
170 -35 9 -172 19 -179 12z"/>
<path d="M3748 5359 c-7 -4 -15 -6 -19 -3 -12 7 -112 -36 -130 -55 -27 -29
-39 -58 -39 -95 0 -36 2 -38 50 -38 42 0 48 3 61 35 26 64 60 80 172 82 48 1
87 -2 87 -5 0 -13 64 -2 122 20 31 11 67 23 79 25 37 7 42 22 7 21 -18 0 -71
3 -118 8 -115 11 -258 13 -272 5z"/>
<path d="M3039 5117 c5 -7 13 -52 17 -100 l7 -87 -49 0 c-27 0 -78 -5 -114
-10 -36 -5 -87 -12 -115 -15 -27 -4 -59 -8 -70 -10 -11 -2 -71 -4 -132 -4
l-113 -1 17 -37 c71 -156 179 -235 353 -259 l40 -6 0 84 c0 45 4 89 9 97 6 9
34 14 92 15 l84 1 5 -785 5 -785 79 -27 c44 -15 80 -27 81 -25 1 1 -1 36 -4
79 l-6 76 39 5 c24 4 48 15 63 31 13 14 28 27 33 27 6 1 15 2 22 3 17 2 77
125 77 159 1 15 -8 47 -18 70 -10 23 -31 70 -45 104 l-26 62 -1 378 c-1 208
-4 428 -8 488 l-6 110 -42 3 -43 3 0 -589 c0 -573 -5 -742 -21 -742 -15 0 -19
135 -21 740 l-3 614 70 1 c100 2 101 0 110 -100 7 -85 11 -93 43 -76 9 5 31
11 47 14 44 7 124 50 166 88 36 34 79 99 98 151 10 26 9 26 -32 25 -38 -1
-121 6 -187 16 -14 2 -74 10 -135 17 -104 12 -167 29 -88 23 21 -1 68 -4 105
-7 36 -2 98 -9 138 -16 39 -7 74 -10 76 -7 14 14 -169 53 -279 60 -31 2 -60 7
-63 10 -4 3 -6 35 -5 71 l1 64 -102 2 c-57 1 -116 3 -131 5 -21 2 -26 0 -18
-8z"/>
<path d="M3028 4984 c-3 -3 -38 -7 -77 -10 -62 -3 -101 -10 -186 -31 -11 -2
-36 -7 -55 -10 -19 -3 -39 -9 -45 -14 -12 -12 42 -12 103 1 26 6 76 12 110 13
34 1 62 4 62 7 0 3 23 5 50 4 46 -1 50 1 50 23 0 24 -2 27 -12 17z"/>
<path d="M1605 4810 c-3 -5 20 -36 52 -67 64 -65 164 -121 228 -128 11 -1 50
-7 87 -14 74 -12 119 -9 172 13 l36 15 -31 58 -31 58 -106 1 c-59 1 -141 7
-182 14 -82 15 -89 17 -92 20 -2 1 -16 4 -32 6 -16 3 -44 11 -62 19 -19 8 -36
10 -39 5z"/>
<path d="M4630 4803 c-25 -8 -56 -16 -70 -18 -14 -2 -60 -11 -103 -19 -43 -9
-130 -16 -195 -17 l-117 -1 -21 -53 -21 -54 26 -6 c67 -18 215 -23 286 -10 75
13 193 86 249 153 32 37 25 43 -34 25z"/>
<path d="M2938 4753 c-2 -5 -4 -134 -3 -287 0 -214 3 -280 13 -283 14 -5 17
-119 3 -127 -5 -3 -30 -7 -55 -8 -26 0 -49 -5 -51 -9 -5 -6 -43 -11 -205 -25
-36 -2 -76 -7 -90 -9 -79 -13 -101 -18 -165 -35 -130 -35 -191 -62 -296 -135
-70 -48 -95 -77 -135 -160 -59 -120 -43 -228 48 -325 37 -40 132 -120 142
-120 4 0 24 -11 46 -25 22 -14 40 -23 40 -20 0 3 11 -2 24 -10 13 -9 87 -38
164 -65 77 -26 153 -55 170 -64 16 -8 32 -13 34 -10 3 3 23 -2 44 -10 22 -9
50 -18 64 -20 43 -8 73 -15 125 -28 28 -7 55 -11 62 -10 6 2 14 -2 18 -7 3 -6
12 -8 19 -5 8 3 17 0 21 -5 3 -6 10 -9 15 -6 5 3 59 -8 122 -24 110 -29 135
-35 208 -47 19 -3 43 -10 53 -15 9 -6 22 -7 27 -4 6 3 10 1 10 -4 0 -6 3 -10
8 -9 4 1 32 -6 62 -17 30 -10 60 -20 65 -21 11 -2 200 -93 247 -120 33 -18 93
-89 107 -127 29 -75 -4 -183 -66 -220 -24 -14 -32 -24 -27 -36 3 -9 9 -58 12
-109 6 -106 1 -104 93 -42 175 119 240 336 156 520 -39 85 -112 153 -267 249
-59 36 -250 124 -250 114 0 -3 -6 -1 -12 4 -17 12 -93 40 -136 48 -19 4 -66
18 -105 31 -40 14 -97 31 -127 38 -90 21 -264 67 -280 73 -8 3 -20 7 -25 8
-81 18 -198 49 -229 61 -21 8 -41 12 -44 10 -3 -3 -10 -2 -16 3 -13 10 -108
36 -118 33 -5 -1 -8 3 -8 10 0 6 -3 9 -6 5 -3 -3 -26 3 -50 13 -24 11 -44 17
-44 14 0 -10 -127 61 -168 93 -59 48 -67 67 -47 109 22 48 154 133 228 148 12
3 44 11 72 20 27 8 51 13 54 11 2 -3 10 0 18 6 7 6 13 9 13 6 0 -2 33 2 73 10
39 8 138 16 220 18 l147 3 0 -191 c0 -154 -3 -198 -16 -222 -10 -19 -14 -49
-12 -87 2 -48 6 -59 23 -65 11 -4 23 -6 28 -5 4 1 7 -2 7 -6 0 -4 9 -8 20 -9
20 -2 20 4 20 691 0 381 -3 727 -6 769 l-7 77 -38 0 c-21 0 -39 -3 -41 -7z
m22 -742 c0 -13 4 -12 -122 -14 -54 -1 -98 1 -98 5 0 9 28 12 133 16 57 2 87
0 87 -7z m-235 -11 c-2 -3 -23 -7 -47 -8 -24 -2 -52 -5 -63 -8 -14 -4 -17 -3
-10 4 13 14 128 25 120 12z m-150 -20 c-11 -5 -27 -9 -35 -9 -13 -1 -13 0 0 9
8 5 24 9 35 9 l20 0 -20 -9z m-56 -5 c-3 -2 -23 -7 -44 -11 -21 -3 -49 -10
-63 -15 -14 -5 -27 -7 -29 -5 -3 3 16 11 41 18 47 14 103 22 95 13z m-149 -40
c0 -7 -30 -13 -34 -7 -3 4 4 9 15 9 10 1 19 0 19 -2z m-55 -15 c-3 -5 -12 -10
-18 -10 -7 0 -6 4 3 10 19 12 23 12 15 0z m-119 -495 c42 -33 88 -64 118 -80
11 -5 21 -16 23 -22 7 -20 -141 75 -180 115 -19 20 -38 48 -42 62 -6 21 -3 19
18 -10 13 -19 42 -49 63 -65z m229 -149 c11 -8 16 -15 10 -15 -5 -1 -21 8 -35
19 -14 11 -31 20 -37 20 -7 0 -13 5 -13 10 0 11 41 -7 75 -34z m185 -92 c0 -4
-27 6 -102 40 -32 14 -58 30 -58 35 0 5 36 -9 80 -31 44 -22 80 -42 80 -44z
m140 -56 c0 -4 -15 -1 -32 6 -18 8 -48 20 -65 26 -18 7 -33 16 -33 20 0 10
130 -42 130 -52z m61 -14 c7 -4 19 -8 28 -8 25 -3 105 -28 115 -37 5 -5 1 -7
-10 -4 -48 11 -122 33 -139 42 -11 6 -26 8 -32 6 -7 -3 -13 0 -13 6 0 10 31 7
51 -5z m214 -66 c7 -7 2 -8 -15 -3 -14 4 -29 12 -35 17 -7 7 -2 8 15 3 14 -4
30 -12 35 -17z m105 -24 c44 -15 80 -31 80 -37 0 -6 -5 -6 -12 0 -7 5 -42 18
-78 28 -36 10 -69 22 -74 27 -16 13 0 10 84 -18z m117 -40 c-3 -3 -12 -4 -19
-1 -8 3 -5 6 6 6 11 1 17 -2 13 -5z"/>
<path d="M4030 4569 c-30 -28 -74 -62 -97 -76 -24 -14 -43 -29 -43 -34 0 -8 7
-10 50 -14 8 0 20 -3 25 -6 23 -14 231 -2 283 15 61 21 134 60 152 81 7 8 17
15 23 15 12 0 67 50 67 61 0 4 -17 1 -38 -6 -32 -11 -96 -23 -137 -26 -21 -1
-190 27 -220 37 -5 2 -35 -20 -65 -47z"/>
<path d="M1800 4603 c0 -20 96 -90 180 -130 90 -44 100 -46 175 -45 44 0 96 3
115 5 19 3 44 6 56 6 11 1 28 7 38 14 16 12 14 15 -26 41 -23 16 -57 43 -73
60 -57 58 -62 60 -85 38 -19 -18 -33 -19 -133 -16 -103 3 -175 9 -187 14 -3 1
-9 2 -13 1 -4 -1 -17 3 -27 9 -11 6 -20 7 -20 3z"/>
<path d="M2416 4441 c-5 -8 -122 -39 -156 -41 -8 0 -51 -2 -95 -4 -96 -4 -90
-3 -75 -21 16 -19 82 -49 164 -74 113 -35 276 -17 353 38 31 22 29 29 -18 41
-23 6 -67 25 -99 41 -64 32 -66 33 -74 20z"/>
<path d="M3820 4438 c-8 -4 -57 -22 -109 -40 -86 -29 -92 -33 -75 -46 31 -24
124 -64 153 -67 15 -1 32 -4 37 -7 20 -12 124 0 189 22 120 39 236 121 143
101 -66 -15 -201 -1 -276 27 -28 11 -54 15 -62 10z"/>
<path d="M2661 4361 c-7 -5 -18 -19 -24 -32 -8 -14 -31 -29 -60 -39 -46 -16
-92 -49 -72 -51 29 -2 54 -7 90 -17 36 -10 82 -18 155 -27 14 -1 46 -6 71 -10
l46 -7 6 78 c3 43 5 79 4 80 -1 1 -29 5 -62 7 -33 3 -60 6 -60 7 0 1 -14 3
-31 5 -17 1 -35 5 -41 8 -5 3 -15 2 -22 -2z"/>
<path d="M3545 4359 c-4 -5 -9 -7 -13 -5 -14 8 -117 -21 -116 -32 1 -7 2 -42
3 -78 1 -57 3 -65 19 -60 9 3 41 7 69 8 29 2 53 7 53 11 0 5 4 6 8 3 7 -4 151
19 181 30 12 4 12 7 -1 20 -8 8 -21 16 -29 18 -32 6 -88 35 -110 58 -28 29
-56 41 -64 27z"/>
<path d="M2356 4241 c-7 -10 105 -71 184 -99 71 -26 224 -52 320 -55 l75 -2 3
33 c3 25 -1 32 -15 33 -10 1 -27 3 -38 5 -11 1 -49 6 -85 9 -36 3 -78 9 -95
14 -16 5 -50 12 -75 15 -55 7 -91 13 -150 26 -25 5 -57 12 -72 14 -15 3 -32 7
-37 10 -5 4 -12 2 -15 -3z"/>
<path d="M3886 4243 c-2 -2 -14 -6 -27 -8 -13 -3 -55 -11 -93 -19 -38 -8 -73
-13 -78 -10 -4 3 -8 0 -8 -6 0 -6 -3 -9 -7 -7 -5 3 -51 -3 -103 -13 -52 -10
-98 -16 -102 -14 -4 3 -8 1 -8 -5 0 -5 -11 -8 -25 -5 -22 4 -25 1 -25 -27 l0
-32 103 7 c130 8 153 12 213 32 77 26 194 90 194 106 0 6 -28 6 -34 1z"/>
<path d="M3410 4046 c0 -11 19 -16 78 -22 42 -4 80 -9 85 -10 4 -1 23 -2 43
-3 19 0 33 -5 29 -10 -3 -6 -15 -8 -28 -5 -21 5 -118 14 -162 16 -49 1 -48 3
-42 -89 4 -49 7 -91 7 -95 0 -4 19 -7 43 -7 86 1 287 -18 337 -31 19 -5 51
-11 70 -14 66 -11 87 -16 122 -31 20 -8 38 -11 42 -8 3 4 6 1 6 -5 0 -7 3 -11
8 -10 13 4 82 -26 82 -35 0 -4 4 -6 8 -3 11 6 82 -59 105 -96 52 -83 -10 -186
-175 -293 -21 -13 -38 -21 -38 -17 0 4 25 23 56 42 57 35 140 117 130 127 -3
3 -22 -8 -43 -24 -36 -28 -105 -73 -183 -121 -19 -12 -64 -35 -100 -52 -36
-17 -78 -38 -95 -47 -16 -10 -32 -17 -35 -16 -3 0 -14 -3 -25 -8 -11 -4 -51
-20 -90 -34 -73 -28 -134 -56 -140 -65 -2 -3 7 -7 19 -8 22 -1 172 -63 250
-103 l38 -19 52 24 c116 54 224 108 271 136 28 16 59 33 70 39 38 17 146 123
185 181 56 82 73 144 68 239 -6 100 -34 150 -120 218 -93 72 -215 143 -259
150 -9 1 -29 8 -45 14 -33 14 -28 12 -109 35 -33 9 -68 17 -77 16 -10 0 -18 4
-18 9 0 6 -4 8 -9 4 -5 -3 -29 -1 -53 4 -56 12 -131 23 -188 26 -25 2 -73 6
-107 10 -52 5 -63 4 -63 -9z m353 -52 c26 -3 50 -11 53 -16 4 -6 -1 -8 -12 -5
-11 3 -45 9 -77 13 -31 3 -60 10 -63 15 -3 5 7 7 23 5 15 -3 49 -8 76 -12z
m170 -36 c26 -6 47 -15 47 -19 0 -5 -18 -2 -39 6 -22 7 -54 16 -71 19 -18 2
-35 7 -38 11 -8 7 33 1 101 -17z m112 -33 c39 -17 21 -18 -25 0 -19 7 -28 14
-20 14 8 0 29 -6 45 -14z m82 -31 c-3 -3 -12 -4 -19 -1 -8 3 -5 6 6 6 11 1 17
-2 13 -5z m73 -40 c0 -2 -9 0 -20 6 -11 6 -20 13 -20 16 0 2 9 0 20 -6 11 -6
20 -13 20 -16z m-180 -584 c0 -5 -8 -10 -17 -10 -15 0 -16 2 -3 10 19 12 20
12 20 0z m-40 -19 c0 -8 -54 -32 -69 -31 -4 1 46 30 67 39 1 1 2 -3 2 -8z
m-81 -45 c-2 -2 -35 -15 -74 -29 -38 -13 -78 -28 -87 -32 -12 -5 -18 -3 -18 6
0 7 2 10 5 7 3 -3 43 9 88 27 71 28 101 35 86 21z"/>
<path d="M2350 3091 c0 -8 -67 -110 -79 -121 -17 -14 -53 -105 -57 -147 -18
-146 86 -260 314 -347 24 -9 60 -19 80 -22 20 -2 60 -9 87 -15 28 -5 70 -11
95 -14 83 -7 145 -16 195 -25 28 -6 61 -12 75 -14 14 -3 25 -5 25 -6 0 -1 11
-3 25 -4 14 -2 50 -9 80 -16 30 -7 64 -15 75 -16 11 -1 20 -3 20 -4 0 -1 8 -3
17 -5 18 -3 84 -23 108 -32 8 -3 20 -7 27 -8 6 -2 25 -13 42 -26 25 -18 31
-30 31 -60 0 -57 -39 -85 -146 -103 -17 -3 -49 -12 -71 -20 -23 -8 -44 -12
-47 -9 -3 4 -6 1 -6 -6 0 -7 -4 -10 -9 -6 -6 3 -32 -3 -60 -14 -27 -10 -52
-16 -55 -13 -4 3 -6 0 -6 -7 0 -7 -4 -10 -9 -7 -5 3 -34 -3 -66 -14 -32 -11
-61 -17 -66 -14 -5 3 -9 0 -9 -6 0 -6 -4 -9 -10 -5 -5 3 -25 -1 -45 -9 -19 -8
-35 -12 -35 -9 0 3 -7 -1 -17 -8 -9 -8 -19 -13 -22 -12 -13 5 -78 -19 -123
-45 -97 -56 -145 -119 -155 -201 -7 -62 19 -115 84 -168 48 -39 143 -98 143
-89 0 3 21 -4 46 -14 25 -11 59 -22 76 -25 17 -3 43 -12 58 -20 15 -8 30 -11
34 -8 3 4 6 1 6 -5 0 -7 6 -12 14 -12 18 0 66 -56 66 -76 0 -42 -31 -71 -125
-119 -138 -70 -159 -111 -75 -151 25 -12 61 -24 80 -27 19 -3 46 -8 60 -11 14
-3 37 -8 53 -12 32 -7 33 -13 6 -92 l-21 -62 32 -68 c17 -37 39 -73 50 -80 17
-10 19 -7 25 56 3 37 18 108 32 157 29 103 40 275 42 661 l2 222 -66 -3 c-36
-1 -65 1 -65 5 0 4 19 7 43 5 45 -2 87 9 87 22 -1 48 -105 54 -297 18 -10 -2
-20 -4 -23 -5 -17 -4 52 -21 111 -26 38 -4 69 -10 69 -14 0 -7 -78 -5 -134 4
-60 10 -38 -2 40 -22 l69 -18 6 -122 7 -123 36 -35 c77 -74 73 -150 -10 -260
-29 -37 -41 -112 -25 -143 7 -12 16 -19 21 -16 12 8 60 -39 60 -58 0 -8 -18
-41 -40 -73 -39 -57 -48 -90 -32 -110 11 -13 33 -64 27 -64 -9 0 -45 80 -45
100 0 12 16 45 35 74 19 29 35 63 35 74 0 32 -13 37 -154 57 -41 6 -96 25 -96
33 0 7 39 35 50 37 3 1 28 13 55 27 128 66 182 166 141 261 -19 47 -42 62
-131 92 -84 28 -140 50 -165 66 -8 5 -24 13 -35 18 -41 18 -95 81 -95 111 0
58 19 82 105 130 42 24 171 70 195 70 27 0 200 55 359 115 57 21 148 94 167
133 26 55 24 145 -5 215 -28 68 -23 82 12 35 52 -70 56 -159 11 -254 -24 -50
-199 -176 -218 -157 -3 3 -6 1 -6 -5 0 -7 -3 -11 -7 -10 -5 1 -51 -12 -103
-30 -52 -17 -106 -33 -120 -36 -14 -2 -43 -9 -65 -15 -22 -6 -50 -12 -62 -14
-12 -2 -25 -6 -29 -10 -4 -3 4 -4 17 -1 59 12 184 24 299 28 151 6 158 7 240
35 96 33 140 56 187 98 79 72 115 201 79 286 -18 42 -106 125 -181 168 -54 31
-172 81 -185 78 -3 0 -35 11 -72 25 -38 14 -68 23 -68 20 0 -2 -16 3 -36 11
-35 15 -56 19 -154 31 -25 3 -62 10 -83 15 -21 6 -50 12 -65 14 -15 2 -38 7
-52 10 -14 3 -43 7 -65 10 -207 24 -334 76 -370 152 -15 31 -15 36 3 76 13 28
36 56 66 77 43 31 59 58 36 61 -17 2 -24 5 -65 23 -22 10 -48 19 -57 21 -9 2
-26 8 -37 14 -24 13 -41 14 -41 2z m645 -1664 c71 -21 82 -27 97 -58 10 -19
18 -43 17 -54 -1 -11 -5 -3 -11 17 -5 20 -17 43 -26 51 -17 14 -147 57 -190
62 -12 1 -25 5 -29 8 -10 11 59 -2 142 -26z"/>
<path d="M2600 3017 c0 -9 194 -67 245 -73 40 -4 46 -3 32 6 -10 7 -28 13 -40
15 -12 2 -50 10 -84 20 -35 9 -71 18 -80 20 -10 2 -30 6 -45 10 -16 4 -28 5
-28 2z"/>
<path d="M2909 2912 c-9 -23 -7 -30 11 -44 12 -10 29 -18 38 -18 14 0 122 -30
131 -37 2 -2 2 -5 -1 -8 -2 -3 -31 4 -63 15 -76 26 -115 26 -57 0 24 -11 61
-25 83 -31 l39 -12 0 -68 0 -67 53 -13 c100 -24 99 -24 96 34 -1 34 2 51 9 50
6 -2 24 10 40 25 16 15 41 35 56 45 31 21 36 43 6 27 -11 -6 -20 -8 -20 -4 0
3 -6 1 -14 -5 -7 -6 -33 -14 -58 -17 -51 -7 -161 13 -152 27 3 6 10 6 17 1 7
-5 19 -10 27 -10 87 -4 111 -2 148 13 24 10 40 21 35 25 -4 4 -75 22 -158 39
-82 18 -157 35 -165 38 -8 3 -18 6 -21 5 -4 -1 -21 3 -38 8 -29 8 -33 6 -42
-18z"/>
<path d="M4070 2726 c0 -2 10 -25 21 -52 42 -94 36 -257 -15 -401 -8 -24 -13
-43 -11 -43 17 0 57 88 71 155 23 113 16 216 -21 289 -16 31 -32 56 -37 56 -4
0 -8 -2 -8 -4z"/>
<path d="M3050 2323 c1 -42 37 -107 60 -109 8 0 34 -4 58 -8 l42 -6 0 65 c0
44 -4 65 -12 67 -15 1 -31 5 -38 8 -3 1 -16 3 -30 4 -14 2 -38 6 -53 10 -26 6
-27 5 -27 -31z"/>
<path d="M3235 2269 c8 -72 10 -77 45 -83 14 -2 25 -5 25 -6 0 -1 30 -4 67 -7
77 -5 85 2 74 61 -6 30 -12 35 -59 49 -110 32 -132 38 -146 44 -11 4 -12 -6
-6 -58z"/>
<path d="M3088 2120 c3 -62 6 -71 20 -65 10 4 26 9 37 11 32 6 211 73 200 74
-45 6 -74 12 -100 20 -16 5 -46 12 -65 15 -19 3 -48 8 -65 11 l-30 6 3 -72z"/>
<path d="M2914 1824 c-18 -14 -18 -15 4 -4 12 6 22 13 22 15 0 8 -5 6 -26 -11z"/>
<path d="M3267 1363 c-15 -15 -5 -32 23 -38 43 -9 47 -25 5 -18 -19 3 -35 2
-35 -4 0 -5 11 -10 24 -11 13 -1 47 -10 74 -21 27 -11 51 -18 53 -16 2 2 22
-9 44 -24 50 -34 63 -67 48 -124 -13 -47 -10 -56 10 -35 36 36 47 89 26 131
-9 20 -8 19 11 -3 42 -47 7 -129 -75 -180 -17 -11 -71 -33 -120 -49 -131 -45
-138 -62 -15 -35 14 3 36 7 50 10 14 3 43 10 65 16 22 6 43 11 48 10 4 -1 7 3
7 9 0 5 4 8 9 5 13 -8 74 41 94 77 36 67 17 130 -57 191 -40 32 -156 93 -156
81 0 -2 -25 5 -57 16 -62 21 -67 22 -76 12z m113 -77 c0 -2 -9 -2 -20 1 -11 3
-20 9 -20 15 0 5 9 4 20 -2 11 -6 20 -12 20 -14z m125 -49 l20 -21 -20 15
c-11 9 -41 25 -67 35 -27 10 -48 22 -48 26 0 12 94 -33 115 -55z"/>
</g>
</svg>
